BioRhyme-Bold.ufo
<glyph name="quotedbl" format="1">
  <advance width="315"/>
  <unicode hex="0022"/>
  <outline>
    <contour>
      <point x="24" y="354" type="line"/>
      <point x="96" y="348" type="line"/>
      <point x="146" y="544" type="line"/>
      <point x="29" y="557" type="line"/>
    </contour>
    <contour>
      <point x="185" y="353" type="line"/>
      <point x="257" y="347" type="line"/>
      <point x="307" y="543" type="line"/>
      <point x="190" y="557" type="line"/>
    </contour>
  </outline>
</glyph>
<glyph name="ampersand" format="1">
  <advance width="630"/>
  <unicode hex="0026"/>
  <outline>
    <contour>
      <point x="466" y="-12"/>
      <point x="567" y="131"/>
      <point x="567" y="213" type="curve" smooth="yes"/>
      <point x="567" y="256"/>
      <point x="551" y="290"/>
      <point x="536" y="311" type="curve"/>
      <point x="436" y="268" type="line"/>
      <point x="446" y="251"/>
      <point x="454" y="235"/>
      <point x="454" y="212" type="curve" smooth="yes"/>
      <point x="454" y="137"/>
      <point x="356" y="82"/>
      <point x="254" y="82" type="curve" smooth="yes"/>
      <point x="182" y="82"/>
      <point x="130" y="107"/>
      <point x="130" y="152" type="curve" smooth="yes"/>
      <point x="130" y="191"/>
      <point x="170" y="208"/>
      <point x="275" y="230" type="curve" smooth="yes"/>
      <point x="400" y="256"/>
      <point x="480" y="324"/>
      <point x="480" y="405" type="curve" smooth="yes"/>
      <point x="480" y="472"/>
      <point x="427" y="528"/>
      <point x="336" y="528" type="curve" smooth="yes"/>
      <point x="238" y="528"/>
      <point x="171" y="452"/>
      <point x="171" y="358" type="curve" smooth="yes"/>
      <point x="169" y="139"/>
      <point x="349" y="-11"/>
      <point x="512" y="-11" type="curve" smooth="yes"/>
      <point x="547" y="-11"/>
      <point x="578" y="-6"/>
      <point x="605" y="1" type="curve"/>
      <point x="588" y="88" type="line"/>
      <point x="562" y="81"/>
      <point x="535" y="78"/>
      <point x="501" y="78" type="curve" smooth="yes"/>
      <point x="421" y="78"/>
      <point x="284" y="189"/>
      <point x="284" y="359" type="curve" smooth="yes"/>
      <point x="284" y="411"/>
      <point x="313" y="437"/>
      <point x="338" y="437" type="curve" smooth="yes"/>
      <point x="356" y="437"/>
      <point x="367" y="425"/>
      <point x="367" y="405" type="curve" smooth="yes"/>
      <point x="367" y="372"/>
      <point x="344" y="337"/>
      <point x="245" y="314" type="curve" smooth="yes"/>
      <point x="95" y="279"/>
      <point x="20" y="232"/>
      <point x="20" y="143" type="curve" smooth="yes"/>
      <point x="20" y="47"/>
      <point x="116" y="-12"/>
      <point x="255" y="-12" type="curve" smooth="yes"/>
    </contour>
  </outline>
</glyph>
<glyph name="parenright" format="1">
  <advance width="310"/>
  <unicode hex="0029"/>
  <outline>
    <contour>
      <point x="127" y="-73"/>
      <point x="255" y="47"/>
      <point x="255" y="255" type="curve" smooth="yes"/>
      <point x="255" y="463"/>
      <point x="114" y="595"/>
      <point x="16" y="640" type="curve"/>
      <point x="-10" y="602" type="line"/>
      <point x="34" y="564"/>
      <point x="144" y="442"/>
      <point x="144" y="255" type="curve" smooth="yes"/>
      <point x="144" y="68"/>
      <point x="46" y="-41"/>
      <point x="-10" y="-90" type="curve"/>
      <point x="16" y="-130" type="line"/>
    </contour>
  </outline>
</glyph>
<glyph name="comma" format="1">
  <advance width="248"/>
  <unicode hex="002C"/>
  <outline>
    <contour>
      <point x="157" y="-97"/>
      <point x="207" y="-39"/>
      <point x="207" y="26" type="curve" smooth="yes"/>
      <point x="207" y="78"/>
      <point x="172" y="120"/>
      <point x="120" y="120" type="curve" smooth="yes"/>
      <point x="77" y="120"/>
      <point x="44" y="91"/>
      <point x="44" y="53" type="curve" smooth="yes"/>
      <point x="44" y="15"/>
      <point x="74" y="-9"/>
      <point x="112" y="-9" type="curve" smooth="yes"/>
      <point x="126" y="-9"/>
      <point x="140" y="-7"/>
      <point x="148" y="-4" type="curve"/>
      <point x="138" y="-42"/>
      <point x="108" y="-79"/>
      <point x="69" y="-120" type="curve"/>
      <point x="98" y="-149" type="line"/>
    </contour>
  </outline>
</glyph>
<glyph name="six" format="1">
  <advance width="482"/>
  <unicode hex="0036"/>
  <outline>
    <contour>
      <point x="370" y="-11"/>
      <point x="457" y="62"/>
      <point x="457" y="155" type="curve" smooth="yes"/>
      <point x="457" y="262"/>
      <point x="367" y="315"/>
      <point x="269" y="315" type="curve" smooth="yes"/>
      <point x="196" y="314"/>
      <point x="148" y="295"/>
      <point x="86" y="257" type="curve"/>
      <point x="90" y="170" type="line"/>
      <point x="149" y="203"/>
      <point x="205" y="218"/>
      <point x="259" y="218" type="curve" smooth="yes"/>
      <point x="300" y="218"/>
      <point x="341" y="197"/>
      <point x="342" y="154" type="curve" smooth="yes"/>
      <point x="342" y="109"/>
      <point x="306" y="87"/>
      <point x="261" y="87" type="curve" smooth="yes"/>
      <point x="197" y="87"/>
      <point x="141" y="139"/>
      <point x="141" y="222" type="curve" smooth="yes"/>
      <point x="141" y="318"/>
      <point x="207" y="384"/>
      <point x="296" y="384" type="curve" smooth="yes"/>
      <point x="342" y="384"/>
      <point x="378" y="370"/>
      <point x="411" y="351" type="curve"/>
      <point x="447" y="440" type="line"/>
      <point x="412" y="461"/>
      <point x="363" y="480"/>
      <point x="290" y="480" type="curve" smooth="yes"/>
      <point x="124" y="480"/>
      <point x="25" y="363"/>
      <point x="25" y="222" type="curve" smooth="yes"/>
      <point x="25" y="79"/>
      <point x="117" y="-9"/>
      <point x="261" y="-10" type="curve" smooth="yes"/>
    </contour>
  </outline>
</glyph>
<glyph name="seven" format="1">
  <advance width="475"/>
  <unicode hex="0037"/>
  <outline>
    <contour>
      <point x="120" y="35" type="line"/>
      <point x="213" y="-11" type="line"/>
      <point x="462" y="371" type="line"/>
      <point x="340" y="377" type="line"/>
    </contour>
    <contour>
      <point x="28" y="467" type="line"/>
      <point x="28" y="267" type="line"/>
      <point x="124" y="267" type="line"/>
      <point x="124" y="371" type="line"/>
      <point x="462" y="371" type="line"/>
      <point x="462" y="467" type="line"/>
    </contour>
  </outline>
</glyph>
<glyph name="nine" format="1">
  <advance width="482"/>
  <unicode hex="0039"/>
  <outline>
    <contour>
      <point x="358" y="-10"/>
      <point x="457" y="97"/>
      <point x="457" y="243" type="curve" smooth="yes"/>
      <point x="457" y="392"/>
      <point x="365" y="479"/>
      <point x="221" y="480" type="curve" smooth="yes"/>
      <point x="112" y="481"/>
      <point x="25" y="408"/>
      <point x="25" y="315" type="curve" smooth="yes"/>
      <point x="25" y="208"/>
      <point x="115" y="155"/>
      <point x="213" y="155" type="curve" smooth="yes"/>
      <point x="286" y="156"/>
      <point x="334" y="175"/>
      <point x="396" y="213" type="curve"/>
      <point x="392" y="300" type="line"/>
      <point x="333" y="267"/>
      <point x="277" y="252"/>
      <point x="223" y="252" type="curve" smooth="yes"/>
      <point x="182" y="252"/>
      <point x="141" y="273"/>
      <point x="140" y="316" type="curve" smooth="yes"/>
      <point x="140" y="361"/>
      <point x="176" y="383"/>
      <point x="221" y="383" type="curve" smooth="yes"/>
      <point x="285" y="383"/>
      <point x="341" y="332"/>
      <point x="341" y="243" type="curve" smooth="yes"/>
      <point x="341" y="142"/>
      <point x="275" y="86"/>
      <point x="186" y="86" type="curve" smooth="yes"/>
      <point x="140" y="86"/>
      <point x="104" y="100"/>
      <point x="71" y="119" type="curve"/>
      <point x="35" y="30" type="line"/>
      <point x="70" y="9"/>
      <point x="119" y="-10"/>
      <point x="192" y="-10" type="curve" smooth="yes"/>
    </contour>
  </outline>
</glyph>
<glyph name="question" format="1">
  <advance width="364"/>
  <unicode hex="003F"/>
  <outline>
    <contour>
      <point x="192" y="-10"/>
      <point x="223" y="15"/>
      <point x="223" y="49" type="curve"/>
      <point x="223" y="86"/>
      <point x="192" y="111"/>
      <point x="149" y="111" type="curve"/>
      <point x="109" y="111"/>
      <point x="75" y="86"/>
      <point x="75" y="49" type="curve"/>
      <point x="75" y="15"/>
      <point x="109" y="-10"/>
      <point x="149" y="-10" type="curve"/>
    </contour>
    <contour>
      <point x="64" y="404" type="line"/>
      <point x="98" y="419"/>
      <point x="133" y="430"/>
      <point x="169" y="430" type="curve" smooth="yes"/>
      <point x="207" y="430"/>
      <point x="231" y="411"/>
      <point x="231" y="389" type="curve" smooth="yes"/>
      <point x="231" y="361"/>
      <point x="205" y="347"/>
      <point x="155" y="323" type="curve" smooth="yes"/>
      <point x="94" y="294"/>
      <point x="61" y="272"/>
      <point x="61" y="232" type="curve" smooth="yes"/>
      <point x="61" y="197"/>
      <point x="81" y="169"/>
      <point x="110" y="131" type="curve"/>
      <point x="147" y="144" type="line"/>
      <point x="144" y="155"/>
      <point x="142" y="166"/>
      <point x="142" y="177" type="curve" smooth="yes"/>
      <point x="142" y="201"/>
      <point x="162" y="211"/>
      <point x="235" y="250" type="curve" smooth="yes"/>
      <point x="302" y="285"/>
      <point x="359" y="327"/>
      <point x="359" y="393" type="curve" smooth="yes"/>
      <point x="359" y="477"/>
      <point x="281" y="530"/>
      <point x="179" y="530" type="curve" smooth="yes"/>
      <point x="122" y="530"/>
      <point x="74" y="518"/>
      <point x="30" y="498" type="curve"/>
    </contour>
  </outline>
</glyph>
<glyph name="C" format="1">
  <advance width="574"/>
  <unicode hex="0043"/>
  <outline>
    <contour>
      <point x="419" y="-10"/>
      <point x="501" y="42"/>
      <point x="554" y="123" type="curve"/>
      <point x="476" y="188" type="line"/>
      <point x="435" y="128"/>
      <point x="390" y="90"/>
      <point x="309" y="90" type="curve" smooth="yes"/>
      <point x="222" y="90"/>
      <point x="153" y="164"/>
      <point x="153" y="260" type="curve" smooth="yes"/>
      <point x="153" y="371"/>
      <point x="227" y="435"/>
      <point x="302" y="435" type="curve" smooth="yes"/>
      <point x="384" y="435"/>
      <point x="433" y="386"/>
      <point x="459" y="331" type="curve"/>
      <point x="540" y="338" type="line"/>
      <point x="540" y="520" type="line"/>
      <point x="430" y="520" type="line"/>
      <point x="430" y="415" type="line"/>
      <point x="485" y="399" type="line"/>
      <point x="445" y="480"/>
      <point x="380" y="530"/>
      <point x="282" y="530" type="curve" smooth="yes"/>
      <point x="143" y="530"/>
      <point x="25" y="420"/>
      <point x="25" y="258" type="curve" smooth="yes"/>
      <point x="25" y="108"/>
      <point x="148" y="-10"/>
      <point x="309" y="-10" type="curve" smooth="yes"/>
    </contour>
    <contour>
      <point x="294" y="530" type="move" name="top"/>
    </contour>
    <contour>
      <point x="309" y="-10" type="move" name="bottom"/>
    </contour>
  </outline>
</glyph>
<glyph name="M" format="1">
  <advance width="845"/>
  <unicode hex="004D"/>
  <outline>
    <contour>
      <point x="435" y="-1" type="line"/>
      <point x="462" y="86" type="line"/>
      <point x="244" y="520" type="line"/>
      <point x="125" y="520" type="line"/>
      <point x="386" y="-1" type="line"/>
    </contour>
    <contour>
      <point x="303" y="0" type="line"/>
      <point x="303" y="96" type="line"/>
      <point x="25" y="96" type="line"/>
      <point x="25" y="0" type="line"/>
    </contour>
    <contour>
      <point x="223" y="54" type="line"/>
      <point x="223" y="219" type="line"/>
      <point x="223" y="306"/>
      <point x="193" y="463"/>
      <point x="180" y="520" type="curve"/>
      <point x="110" y="520" type="line"/>
      <point x="110" y="54" type="line"/>
    </contour>
    <contour>
      <point x="222" y="424" type="line"/>
      <point x="222" y="520" type="line"/>
      <point x="25" y="520" type="line"/>
      <point x="25" y="424" type="line"/>
    </contour>
    <contour>
      <point x="820" y="0" type="line"/>
      <point x="820" y="96" type="line"/>
      <point x="536" y="96" type="line"/>
      <point x="536" y="0" type="line"/>
    </contour>
    <contour>
      <point x="453" y="-1" type="line"/>
      <point x="714" y="520" type="line"/>
      <point x="600" y="520" type="line"/>
      <point x="387" y="86" type="line"/>
      <point x="408" y="-1" type="line"/>
    </contour>
    <contour>
      <point x="735" y="54" type="line"/>
      <point x="735" y="520" type="line"/>
      <point x="668" y="520" type="line"/>
      <point x="651" y="463"/>
      <point x="615" y="306"/>
      <point x="615" y="219" type="curve" smooth="yes"/>
      <point x="615" y="54" type="line"/>
    </contour>
    <contour>
      <point x="820" y="424" type="line"/>
      <point x="820" y="520" type="line"/>
      <point x="617" y="520" type="line"/>
      <point x="617" y="424" type="line"/>
    </contour>
    <contour>
      <point x="420" y="492" type="move" name="top"/>
    </contour>
    <contour>
      <point x="423" y="3" type="move" name="bottom"/>
    </contour>
  </outline>
</glyph>
<glyph name="N" format="1">
  <advance width="714"/>
  <unicode hex="004E"/>
  <outline>
    <contour>
      <point x="619" y="-4" type="line"/>
      <point x="619" y="507" type="line"/>
      <point x="507" y="507" type="line"/>
      <point x="507" y="201" type="line"/>
      <point x="228" y="520" type="line"/>
      <point x="77" y="520" type="line"/>
      <point x="553" y="-5" type="line"/>
    </contour>
    <contour>
      <point x="318" y="0" type="line"/>
      <point x="318" y="96" type="line"/>
      <point x="25" y="96" type="line"/>
      <point x="25" y="0" type="line"/>
    </contour>
    <contour>
      <point x="228" y="12" type="line"/>
      <point x="228" y="520" type="line"/>
      <point x="110" y="520" type="line"/>
      <point x="110" y="12" type="line"/>
    </contour>
    <contour>
      <point x="224" y="424" type="line"/>
      <point x="228" y="520" type="line"/>
      <point x="25" y="520" type="line"/>
      <point x="25" y="424" type="line"/>
    </contour>
    <contour>
      <point x="699" y="424" type="line"/>
      <point x="699" y="520" type="line"/>
      <point x="422" y="520" type="line"/>
      <point x="422" y="424" type="line"/>
    </contour>
    <contour>
      <point x="370" y="520" type="move" name="top"/>
    </contour>
    <contour>
      <point x="370" y="0" type="move" name="bottom"/>
    </contour>
  </outline>
</glyph>
<glyph name="O" format="1">
  <advance width="617"/>
  <unicode hex="004F"/>
  <outline>
    <contour>
      <point x="472" y="-10"/>
      <point x="592" y="110"/>
      <point x="592" y="260" type="curve"/>
      <point x="592" y="410"/>
      <point x="472" y="530"/>
      <point x="309" y="530" type="curve"/>
      <point x="145" y="530"/>
      <point x="25" y="410"/>
      <point x="25" y="260" type="curve"/>
      <point x="25" y="110"/>
      <point x="145" y="-10"/>
      <point x="309" y="-10" type="curve"/>
    </contour>
    <contour>
      <point x="210" y="89"/>
      <point x="154" y="167"/>
      <point x="154" y="260" type="curve"/>
      <point x="154" y="351"/>
      <point x="210" y="431"/>
      <point x="308" y="431" type="curve"/>
      <point x="407" y="431"/>
      <point x="463" y="353"/>
      <point x="463" y="260" type="curve"/>
      <point x="463" y="169"/>
      <point x="407" y="89"/>
      <point x="308" y="89" type="curve"/>
    </contour>
    <contour>
      <point x="308" y="-10" type="move" name="bottom"/>
    </contour>
    <contour>
      <point x="349" y="-8" type="move" name="ogonek"/>
    </contour>
    <contour>
      <point x="308" y="530" type="move" name="top"/>
    </contour>
    <contour>
      <point x="546" y="490" type="move" name="topright"/>
    </contour>
    <contour>
      <point x="309" y="245" type="move" name="center"/>
    </contour>
  </outline>
</glyph>
<glyph name="P" format="1">
  <advance width="559"/>
  <unicode hex="0050"/>
  <outline>
    <contour>
      <point x="332" y="176" type="line" smooth="yes"/>
      <point x="458" y="176"/>
      <point x="539" y="247"/>
      <point x="539" y="352" type="curve" smooth="yes"/>
      <point x="539" y="453"/>
      <point x="455" y="520"/>
      <point x="330" y="520" type="curve" smooth="yes"/>
      <point x="25" y="520" type="line"/>
      <point x="25" y="424" type="line"/>
      <point x="322" y="424" type="line" smooth="yes"/>
      <point x="367" y="424"/>
      <point x="418" y="410"/>
      <point x="418" y="353" type="curve" smooth="yes"/>
      <point x="418" y="283"/>
      <point x="366" y="272"/>
      <point x="325" y="272" type="curve" smooth="yes"/>
      <point x="190" y="273" type="line"/>
      <point x="190" y="176" type="line"/>
    </contour>
    <contour>
      <point x="323" y="0" type="line"/>
      <point x="323" y="96" type="line"/>
      <point x="25" y="96" type="line"/>
      <point x="25" y="0" type="line"/>
    </contour>
    <contour>
      <point x="233" y="53" type="line"/>
      <point x="233" y="468" type="line"/>
      <point x="110" y="468" type="line"/>
      <point x="110" y="53" type="line"/>
    </contour>
    <contour>
      <point x="286" y="527" type="move" name="top"/>
    </contour>
    <contour>
      <point x="286" y="0" type="move" name="bottom"/>
    </contour>
  </outline>
</glyph>
<glyph name="T" format="1">
  <advance width="598"/>
  <unicode hex="0054"/>
  <outline>
    <contour>
      <point x="128" y="320" type="line"/>
      <point x="128" y="424" type="line"/>
      <point x="470" y="424" type="line"/>
      <point x="470" y="320" type="line"/>
      <point x="578" y="320" type="line"/>
      <point x="578" y="520" type="line"/>
      <point x="20" y="520" type="line"/>
      <point x="20" y="320" type="line"/>
    </contour>
    <contour>
      <point x="443" y="0" type="line"/>
      <point x="443" y="96" type="line"/>
      <point x="154" y="96" type="line"/>
      <point x="154" y="0" type="line"/>
    </contour>
    <contour>
      <point x="360" y="62" type="line"/>
      <point x="360" y="467" type="line"/>
      <point x="238" y="467" type="line"/>
      <point x="238" y="62" type="line"/>
    </contour>
    <contour>
      <point x="298" y="245" type="move" name="center"/>
    </contour>
    <contour>
      <point x="298" y="0" type="move" name="bottom"/>
    </contour>
    <contour>
      <point x="298" y="527" type="move" name="top"/>
    </contour>
  </outline>
</glyph>
<glyph name="X" format="1">
  <advance width="612"/>
  <unicode hex="0058"/>
  <outline>
    <contour>
      <point x="565" y="79" type="line"/>
      <point x="361" y="292" type="line"/>
      <point x="348" y="292" type="line"/>
      <point x="207" y="442" type="line"/>
      <point x="44" y="442" type="line"/>
      <point x="258" y="225" type="line"/>
      <point x="272" y="225" type="line"/>
      <point x="402" y="79" type="line"/>
    </contour>
    <contour>
      <point x="258" y="0" type="line"/>
      <point x="258" y="86" type="line"/>
      <point x="101" y="86" type="line"/>
      <point x="101" y="96" type="line"/>
      <point x="10" y="96" type="line"/>
      <point x="10" y="0" type="line"/>
    </contour>
    <contour>
      <point x="602" y="0" type="line"/>
      <point x="602" y="96" type="line"/>
      <point x="511" y="96" type="line"/>
      <point x="511" y="86" type="line"/>
      <point x="330" y="86" type="line"/>
      <point x="330" y="0" type="line"/>
    </contour>
    <contour>
      <point x="185" y="79" type="line"/>
      <point x="326" y="233" type="line"/>
      <point x="344" y="232" type="line"/>
      <point x="552" y="442" type="line"/>
      <point x="423" y="442" type="line"/>
      <point x="287" y="299" type="line"/>
      <point x="268" y="301" type="line"/>
      <point x="55" y="79" type="line"/>
    </contour>
    <contour>
      <point x="105" y="424" type="line"/>
      <point x="105" y="434" type="line"/>
      <point x="279" y="434" type="line"/>
      <point x="279" y="520" type="line"/>
      <point x="10" y="520" type="line"/>
      <point x="10" y="424" type="line"/>
    </contour>
    <contour>
      <point x="602" y="424" type="line"/>
      <point x="602" y="520" type="line"/>
      <point x="351" y="520" type="line"/>
      <point x="351" y="434" type="line"/>
      <point x="507" y="434" type="line"/>
      <point x="507" y="424" type="line"/>
    </contour>
    <contour>
      <point x="305" y="490" type="move" name="top"/>
    </contour>
    <contour>
      <point x="305" y="0" type="move" name="bottom"/>
    </contour>
  </outline>
</glyph>
<glyph name="b" format="1">
  <advance width="498"/>
  <unicode hex="0062"/>
  <outline>
    <contour>
      <point x="167" y="430" type="line"/>
      <point x="167" y="520" type="line"/>
      <point x="0" y="520" type="line"/>
      <point x="0" y="430" type="line"/>
    </contour>
    <contour>
      <point x="235" y="367"/>
      <point x="150" y="292"/>
      <point x="115" y="173" type="curve"/>
      <point x="115" y="89" type="line"/>
      <point x="148" y="197"/>
      <point x="219" y="268"/>
      <point x="272" y="269" type="curve" smooth="yes"/>
      <point x="325" y="270"/>
      <point x="358" y="231"/>
      <point x="358" y="179" type="curve" smooth="yes"/>
      <point x="358" y="124"/>
      <point x="320" y="84"/>
      <point x="257" y="84" type="curve" smooth="yes"/>
      <point x="204" y="84"/>
      <point x="149" y="130"/>
      <point x="117" y="173" type="curve"/>
      <point x="117" y="97" type="line"/>
      <point x="148" y="55"/>
      <point x="196" y="-11"/>
      <point x="287" y="-11" type="curve" smooth="yes"/>
      <point x="398" y="-11"/>
      <point x="478" y="71"/>
      <point x="478" y="178" type="curve" smooth="yes"/>
      <point x="478" y="287"/>
      <point x="401" y="367"/>
      <point x="313" y="367" type="curve" smooth="yes"/>
    </contour>
    <contour>
      <point x="177" y="-13" type="line"/>
      <point x="177" y="520" type="line"/>
      <point x="61" y="520" type="line"/>
      <point x="61" y="-13" type="line"/>
    </contour>
    <contour>
      <point x="305" y="365" type="move" name="top"/>
    </contour>
    <contour>
      <point x="305" y="-12" type="move" name="bottom"/>
    </contour>
  </outline>
</glyph>
<glyph name="k" format="1">
  <advance width="528"/>
  <unicode hex="006B"/>
  <outline>
    <contour>
      <point x="388" y="131"/>
      <point x="475" y="170"/>
      <point x="476" y="251" type="curve" smooth="yes"/>
      <point x="477" y="331"/>
      <point x="411" y="367"/>
      <point x="341" y="367" type="curve" smooth="yes"/>
      <point x="279" y="367"/>
      <point x="223" y="334"/>
      <point x="171" y="274" type="curve"/>
      <point x="169" y="200" type="line"/>
      <point x="226" y="255"/>
      <point x="279" y="273"/>
      <point x="308" y="273" type="curve" smooth="yes"/>
      <point x="331" y="273"/>
      <point x="348" y="265"/>
      <point x="348" y="246" type="curve" smooth="yes"/>
      <point x="348" y="223"/>
      <point x="320" y="213"/>
      <point x="291" y="212" type="curve" smooth="yes"/>
      <point x="262" y="212"/>
      <point x="222" y="214"/>
      <point x="169" y="241" type="curve"/>
      <point x="169" y="171" type="line"/>
      <point x="213" y="148"/>
      <point x="254" y="131"/>
      <point x="316" y="131" type="curve" smooth="yes"/>
    </contour>
    <contour>
      <point x="250" y="0" type="line"/>
      <point x="250" y="90" type="line"/>
      <point x="8" y="90" type="line"/>
      <point x="8" y="0" type="line"/>
    </contour>
    <contour>
      <point x="191" y="30" type="line"/>
      <point x="191" y="520" type="line"/>
      <point x="79" y="520" type="line"/>
      <point x="79" y="30" type="line"/>
    </contour>
    <contour>
      <point x="481" y="-11"/>
      <point x="511" y="12"/>
      <point x="538" y="44" type="curve"/>
      <point x="480" y="109" type="line"/>
      <point x="468" y="97"/>
      <point x="455" y="89"/>
      <point x="433" y="89" type="curve" smooth="yes"/>
      <point x="409" y="89"/>
      <point x="387" y="113"/>
      <point x="382" y="149" type="curve"/>
      <point x="283" y="149" type="line"/>
      <point x="294" y="53"/>
      <point x="349" y="-11"/>
      <point x="428" y="-11" type="curve" smooth="yes"/>
    </contour>
    <contour>
      <point x="182" y="430" type="line"/>
      <point x="182" y="520" type="line"/>
      <point x="8" y="520" type="line"/>
      <point x="8" y="430" type="line"/>
    </contour>
    <contour>
      <point x="294" y="363" type="move" name="top"/>
    </contour>
    <contour>
      <point x="294" y="0" type="move" name="bottom"/>
    </contour>
  </outline>
</glyph>
<glyph name="q" format="1">
  <advance width="501"/>
  <unicode hex="0071"/>
  <outline>
    <contour>
      <point x="273" y="-11"/>
      <point x="334" y="42"/>
      <point x="377" y="123" type="curve"/>
      <point x="377" y="206" type="line"/>
      <point x="334" y="117"/>
      <point x="273" y="87"/>
      <point x="230" y="86" type="curve" smooth="yes"/>
      <point x="173" y="85"/>
      <point x="140" y="127"/>
      <point x="140" y="178" type="curve" smooth="yes"/>
      <point x="140" y="234"/>
      <point x="186" y="272"/>
      <point x="249" y="272" type="curve" smooth="yes"/>
      <point x="315" y="272"/>
      <point x="433" y="183"/>
      <point x="489" y="127" type="curve"/>
      <point x="489" y="240" type="line"/>
      <point x="433" y="296"/>
      <point x="323" y="367"/>
      <point x="219" y="367" type="curve" smooth="yes"/>
      <point x="109" y="367"/>
      <point x="20" y="288"/>
      <point x="20" y="178" type="curve" smooth="yes"/>
      <point x="20" y="68"/>
      <point x="97" y="-11"/>
      <point x="189" y="-11" type="curve" smooth="yes"/>
    </contour>
    <contour>
      <point x="481" y="-165" type="line"/>
      <point x="481" y="-75" type="line"/>
      <point x="212" y="-75" type="line"/>
      <point x="212" y="-165" type="line"/>
    </contour>
    <contour>
      <point x="411" y="-157" type="line"/>
      <point x="411" y="369" type="line"/>
      <point x="295" y="346" type="line"/>
      <point x="295" y="-157" type="line"/>
    </contour>
    <contour>
      <point x="179" y="179" type="move" name="center"/>
    </contour>
    <contour>
      <point x="178" y="-8" type="move" name="bottom"/>
    </contour>
    <contour>
      <point x="178" y="363" type="move" name="top"/>
    </contour>
  </outline>
</glyph>
<glyph name="section" format="1">
  <advance width="586"/>
  <unicode hex="00A7"/>
  <outline>
    <contour>
      <point x="505" y="17"/>
      <point x="561" y="69"/>
      <point x="561" y="142" type="curve" smooth="yes"/>
      <point x="561" y="237"/>
      <point x="470" y="285"/>
      <point x="349" y="319" type="curve" smooth="yes"/>
      <point x="251" y="347"/>
      <point x="215" y="368"/>
      <point x="215" y="395" type="curve" smooth="yes"/>
      <point x="215" y="419"/>
      <point x="235" y="434"/>
      <point x="266" y="434" type="curve" smooth="yes"/>
      <point x="327" y="434"/>
      <point x="407" y="385"/>
      <point x="440" y="332" type="curve"/>
      <point x="512" y="336" type="line"/>
      <point x="512" y="520" type="line"/>
      <point x="403" y="520" type="line"/>
      <point x="403" y="405" type="line"/>
      <point x="462" y="400" type="line"/>
      <point x="408" y="486"/>
      <point x="345" y="530"/>
      <point x="252" y="530" type="curve" smooth="yes"/>
      <point x="159" y="530"/>
      <point x="87" y="472"/>
      <point x="87" y="382" type="curve" smooth="yes"/>
      <point x="87" y="306"/>
      <point x="162" y="235"/>
      <point x="287" y="200" type="curve" smooth="yes"/>
      <point x="383" y="173"/>
      <point x="433" y="157"/>
      <point x="433" y="112" type="curve" smooth="yes"/>
      <point x="433" y="67"/>
      <point x="390" y="49"/>
      <point x="359" y="36" type="curve"/>
      <point x="379" y="-13" type="line"/>
    </contour>
    <contour>
      <point x="429" y="-247"/>
      <point x="501" y="-189"/>
      <point x="501" y="-99" type="curve" smooth="yes"/>
      <point x="501" y="-23"/>
      <point x="425" y="48"/>
      <point x="301" y="83" type="curve" smooth="yes"/>
      <point x="204" y="110"/>
      <point x="155" y="126"/>
      <point x="155" y="171" type="curve" smooth="yes"/>
      <point x="155" y="216"/>
      <point x="198" y="234"/>
      <point x="229" y="247" type="curve"/>
      <point x="209" y="296" type="line"/>
      <point x="83" y="266"/>
      <point x="27" y="214"/>
      <point x="27" y="141" type="curve" smooth="yes"/>
      <point x="27" y="46"/>
      <point x="118" y="-2"/>
      <point x="239" y="-36" type="curve" smooth="yes"/>
      <point x="336" y="-64"/>
      <point x="373" y="-85"/>
      <point x="373" y="-112" type="curve" smooth="yes"/>
      <point x="373" y="-136"/>
      <point x="353" y="-151"/>
      <point x="321" y="-151" type="curve" smooth="yes"/>
      <point x="260" y="-151"/>
      <point x="181" y="-102"/>
      <point x="147" y="-49" type="curve"/>
      <point x="75" y="-53" type="line"/>
      <point x="75" y="-237" type="line"/>
      <point x="185" y="-237" type="line"/>
      <point x="185" y="-122" type="line"/>
      <point x="125" y="-117" type="line"/>
      <point x="180" y="-203"/>
      <point x="243" y="-247"/>
      <point x="336" y="-247" type="curve" smooth="yes"/>
    </contour>
  </outline>
</glyph>
<glyph name="logicalnot" format="1">
  <advance width="471"/>
  <unicode hex="00AC"/>
  <outline>
    <contour>
      <point x="409" y="262" type="line"/>
      <point x="409" y="358" type="line"/>
      <point x="35" y="358" type="line"/>
      <point x="35" y="262" type="line"/>
    </contour>
    <contour>
      <point x="439" y="76" type="line"/>
      <point x="439" y="358" type="line"/>
      <point x="343" y="358" type="line"/>
      <point x="343" y="76" type="line"/>
    </contour>
  </outline>
</glyph>
<glyph name="guillemotright" format="1">
  <advance width="665"/>
  <unicode hex="00BB"/>
  <outline>
    <contour>
      <point x="415" y="74"/>
      <point x="493" y="135"/>
      <point x="615" y="135" type="curve" smooth="yes"/>
      <point x="624" y="135" type="line"/>
      <point x="624" y="232" type="line"/>
      <point x="614" y="232" type="line" smooth="yes"/>
      <point x="491" y="232"/>
      <point x="414" y="283"/>
      <point x="382" y="388" type="curve"/>
      <point x="294" y="355" type="line"/>
      <point x="328" y="245"/>
      <point x="414" y="181"/>
      <point x="600" y="181" type="curve"/>
      <point x="600" y="187" type="line"/>
      <point x="415" y="187"/>
      <point x="330" y="112"/>
      <point x="295" y="2" type="curve"/>
      <point x="384" y="-31" type="line"/>
    </contour>
    <contour>
      <point x="141" y="74"/>
      <point x="219" y="135"/>
      <point x="341" y="135" type="curve" smooth="yes"/>
      <point x="350" y="135" type="line"/>
      <point x="350" y="232" type="line"/>
      <point x="340" y="232" type="line" smooth="yes"/>
      <point x="217" y="232"/>
      <point x="140" y="283"/>
      <point x="108" y="388" type="curve"/>
      <point x="20" y="355" type="line"/>
      <point x="54" y="245"/>
      <point x="140" y="181"/>
      <point x="326" y="181" type="curve"/>
      <point x="326" y="187" type="line"/>
      <point x="141" y="187"/>
      <point x="56" y="112"/>
      <point x="21" y="2" type="curve"/>
      <point x="110" y="-31" type="line"/>
    </contour>
  </outline>
</glyph>
<glyph name="Oslash" format="1">
  <advance width="617"/>
  <unicode hex="00D8"/>
  <outline>
    <contour>
      <point x="259" y="43" type="line"/>
      <point x="256" y="58" type="line"/>
      <point x="431" y="439" type="line"/>
      <point x="445" y="445" type="line"/>
      <point x="506" y="581" type="line"/>
      <point x="404" y="581" type="line"/>
      <point x="358" y="480" type="line"/>
      <point x="361" y="465" type="line"/>
      <point x="180" y="69" type="line"/>
      <point x="164" y="59" type="line"/>
      <point x="110" y="-59" type="line"/>
      <point x="212" y="-59" type="line"/>
    </contour>
    <component base="O"/>
  </outline>
</glyph>
<glyph name="oslash" format="1">
  <advance width="453"/>
  <unicode hex="00F8"/>
  <outline>
    <contour>
      <point x="210" y="43" type="line"/>
      <point x="207" y="58" type="line"/>
      <point x="302" y="269" type="line"/>
      <point x="316" y="275" type="line"/>
      <point x="377" y="411" type="line"/>
      <point x="275" y="411" type="line"/>
      <point x="229" y="310" type="line"/>
      <point x="232" y="295" type="line"/>
      <point x="131" y="69" type="line"/>
      <point x="115" y="59" type="line"/>
      <point x="61" y="-59" type="line"/>
      <point x="163" y="-59" type="line"/>
    </contour>
    <component base="o"/>
  </outline>
</glyph>
<glyph name="hbar" format="1">
  <advance width="548"/>
  <unicode hex="0127"/>
  <outline>
    <contour>
      <point x="482" y="0" type="line"/>
      <point x="482" y="189" type="line" smooth="yes"/>
      <point x="482" y="306"/>
      <point x="440" y="366"/>
      <point x="349" y="366" type="curve" smooth="yes"/>
      <point x="271" y="366"/>
      <point x="221" y="321"/>
      <point x="150" y="227" type="curve"/>
      <point x="150" y="137" type="line"/>
      <point x="204" y="217"/>
      <point x="251" y="263"/>
      <point x="300" y="263" type="curve" smooth="yes"/>
      <point x="343" y="263"/>
      <point x="367" y="233"/>
      <point x="367" y="189" type="curve" smooth="yes"/>
      <point x="367" y="0" type="line"/>
    </contour>
    <contour>
      <point x="251" y="0" type="line"/>
      <point x="251" y="93" type="line"/>
      <point x="8" y="93" type="line"/>
      <point x="8" y="0" type="line"/>
    </contour>
    <contour>
      <point x="195" y="0" type="line"/>
      <point x="195" y="520" type="line"/>
      <point x="79" y="520" type="line"/>
      <point x="79" y="0" type="line"/>
    </contour>
    <contour>
      <point x="192" y="427" type="line"/>
      <point x="192" y="520" type="line"/>
      <point x="8" y="520" type="line"/>
      <point x="8" y="427" type="line"/>
    </contour>
    <contour>
      <point x="543" y="0" type="line"/>
      <point x="543" y="93" type="line"/>
      <point x="310" y="93" type="line"/>
      <point x="310" y="0" type="line"/>
    </contour>
    <contour>
      <point x="317" y="396" type="line"/>
      <point x="317" y="469" type="line"/>
      <point x="8" y="469" type="line"/>
      <point x="8" y="396" type="line"/>
    </contour>
    <contour>
      <point x="288" y="179" type="move" name="center"/>
    </contour>
    <contour>
      <point x="288" y="0" type="move" name="bottom"/>
    </contour>
    <contour>
      <point x="288" y="363" type="move" name="top"/>
    </contour>
  </outline>
</glyph>
<glyph name="oe" format="1">
  <advance width="716"/>
  <unicode hex="0153"/>
  <outline>
    <contour>
      <point x="336" y="-11"/>
      <point x="422" y="63"/>
      <point x="422" y="178" type="curve"/>
      <point x="422" y="293"/>
      <point x="328" y="367"/>
      <point x="226" y="367" type="curve"/>
      <point x="120" y="367"/>
      <point x="20" y="293"/>
      <point x="20" y="178" type="curve"/>
      <point x="20" y="63"/>
      <point x="120" y="-11"/>
      <point x="226" y="-11" type="curve"/>
    </contour>
    <contour>
      <point x="179" y="79"/>
      <point x="140" y="116"/>
      <point x="140" y="178" type="curve"/>
      <point x="140" y="240"/>
      <point x="179" y="277"/>
      <point x="226" y="277" type="curve"/>
      <point x="272" y="277"/>
      <point x="311" y="240"/>
      <point x="311" y="178" type="curve"/>
      <point x="311" y="116"/>
      <point x="272" y="79"/>
      <point x="226" y="79" type="curve"/>
    </contour>
    <contour>
      <point x="602" y="-11"/>
      <point x="659" y="17"/>
      <point x="704" y="56" type="curve"/>
      <point x="658" y="126" type="line"/>
      <point x="624" y="100"/>
      <point x="589" y="81"/>
      <point x="535" y="81" type="curve" smooth="yes"/>
      <point x="478" y="81"/>
      <point x="420" y="117"/>
      <point x="420" y="177" type="curve" smooth="yes"/>
      <point x="420" y="234"/>
      <point x="476" y="278"/>
      <point x="532" y="278" type="curve" smooth="yes"/>
      <point x="559" y="278"/>
      <point x="577" y="266"/>
      <point x="577" y="250" type="curve" smooth="yes"/>
      <point x="577" y="229"/>
      <point x="554" y="217"/>
      <point x="513" y="216" type="curve" smooth="yes"/>
      <point x="486" y="216"/>
      <point x="451" y="218"/>
      <point x="395" y="245" type="curve"/>
      <point x="395" y="180" type="line"/>
      <point x="439" y="157"/>
      <point x="481" y="140"/>
      <point x="543" y="140" type="curve" smooth="yes"/>
      <point x="619" y="140"/>
      <point x="692" y="176"/>
      <point x="692" y="250" type="curve" smooth="yes"/>
      <point x="692" y="321"/>
      <point x="626" y="367"/>
      <point x="532" y="367" type="curve"/>
      <point x="425" y="367"/>
      <point x="331" y="278"/>
      <point x="331" y="187" type="curve"/>
      <point x="331" y="177" type="line"/>
      <point x="331" y="70"/>
      <point x="419" y="-11"/>
      <point x="525" y="-11" type="curve" smooth="yes"/>
    </contour>
    <contour>
      <point x="386" y="-10" type="move" name="bottom"/>
    </contour>
    <contour>
      <point x="704" y="56" type="move" name="ogonek"/>
    </contour>
    <contour>
      <point x="377" y="367" type="move" name="top"/>
    </contour>
    <contour>
      <point x="638" y="357" type="move" name="topright"/>
    </contour>
    <contour>
      <point x="375" y="179" type="move" name="center"/>
    </contour>
  </outline>
</glyph>
<glyph name="uni02BB" format="1">
  <advance width="219"/>
  <unicode hex="02BB"/>
  <outline>
    <contour>
      <point x="43" y="-229"/>
      <point x="74" y="-256"/>
      <point x="112" y="-256" type="curve" smooth="yes"/>
      <point x="147" y="-256"/>
      <point x="176" y="-235"/>
      <point x="176" y="-206" type="curve" smooth="yes"/>
      <point x="176" y="-179"/>
      <point x="153" y="-160"/>
      <point x="123" y="-160" type="curve" smooth="yes"/>
      <point x="113" y="-160"/>
      <point x="103" y="-161"/>
      <point x="96" y="-165" type="curve"/>
      <point x="95" y="-152"/>
      <point x="110" y="-117"/>
      <point x="147" y="-85" type="curve"/>
      <point x="122" y="-60" type="line"/>
      <point x="79" y="-92"/>
      <point x="43" y="-139"/>
      <point x="43" y="-181" type="curve" smooth="yes"/>
    </contour>
    <contour>
      <point x="111" y="0" type="move" name="_bottom"/>
    </contour>
  </outline>
</glyph>
<glyph name="tildecomb" format="1">
  <advance width="401"/>
  <unicode hex="0303"/>
  <outline>
    <contour>
      <point x="326" y="567"/>
      <point x="358" y="627"/>
      <point x="358" y="687" type="curve"/>
      <point x="295" y="692" type="line"/>
      <point x="292" y="660"/>
      <point x="287" y="629"/>
      <point x="264" y="629" type="curve" smooth="yes"/>
      <point x="252" y="629"/>
      <point x="241" y="641"/>
      <point x="223" y="660" type="curve" smooth="yes"/>
      <point x="202" y="680"/>
      <point x="179" y="703"/>
      <point x="137" y="703" type="curve" smooth="yes"/>
      <point x="75" y="703"/>
      <point x="43" y="643"/>
      <point x="43" y="583" type="curve"/>
      <point x="107" y="577" type="line"/>
      <point x="110" y="610"/>
      <point x="114" y="641"/>
      <point x="137" y="641" type="curve" smooth="yes"/>
      <point x="150" y="641"/>
      <point x="161" y="629"/>
      <point x="179" y="610" type="curve" smooth="yes"/>
      <point x="200" y="590"/>
      <point x="223" y="567"/>
      <point x="264" y="567" type="curve" smooth="yes"/>
    </contour>
    <contour>
      <point x="212" y="520" type="move" name="_top"/>
    </contour>
  </outline>
</glyph>
<glyph name="uni0308" format="1">
  <advance width="424"/>
  <unicode hex="0308"/>
  <outline>
    <contour>
      <point x="337" y="588"/>
      <point x="364" y="611"/>
      <point x="364" y="640" type="curve"/>
      <point x="364" y="671"/>
      <point x="337" y="694"/>
      <point x="302" y="694" type="curve"/>
      <point x="269" y="694"/>
      <point x="240" y="671"/>
      <point x="240" y="640" type="curve"/>
      <point x="240" y="611"/>
      <point x="269" y="588"/>
      <point x="302" y="588" type="curve"/>
    </contour>
    <contour>
      <point x="159" y="588"/>
      <point x="186" y="611"/>
      <point x="186" y="640" type="curve"/>
      <point x="186" y="671"/>
      <point x="159" y="694"/>
      <point x="124" y="694" type="curve"/>
      <point x="91" y="694"/>
      <point x="62" y="671"/>
      <point x="62" y="640" type="curve"/>
      <point x="62" y="611"/>
      <point x="91" y="588"/>
      <point x="124" y="588" type="curve"/>
    </contour>
    <contour>
      <point x="215" y="521" type="move" name="_top"/>
    </contour>
  </outline>
</glyph>
<glyph name="hookabovecomb" format="1">
  <advance width="262"/>
  <unicode hex="0309"/>
  <outline>
    <contour>
      <point x="171" y="522" type="line"/>
      <point x="196" y="548"/>
      <point x="217" y="575"/>
      <point x="217" y="613" type="curve" smooth="yes"/>
      <point x="217" y="655"/>
      <point x="176" y="682"/>
      <point x="131" y="682" type="curve" smooth="yes"/>
      <point x="95" y="682"/>
      <point x="69" y="674"/>
      <point x="45" y="661" type="curve"/>
      <point x="65" y="600" type="line"/>
      <point x="82" y="610"/>
      <point x="100" y="616"/>
      <point x="117" y="616" type="curve" smooth="yes"/>
      <point x="138" y="616"/>
      <point x="149" y="604"/>
      <point x="149" y="587" type="curve" smooth="yes"/>
      <point x="149" y="569"/>
      <point x="140" y="554"/>
      <point x="129" y="536" type="curve"/>
    </contour>
    <contour>
      <point x="107" y="520" type="move" name="_hook"/>
    </contour>
  </outline>
</glyph>
<glyph name="uni0335" format="1">
  <advance width="447"/>
  <unicode hex="0335"/>
  <outline>
    <contour>
      <point x="33" y="284" type="line"/>
      <point x="33" y="187" type="line"/>
      <point x="363" y="187" type="line"/>
      <point x="363" y="284" type="line"/>
    </contour>
  </outline>
</glyph>
<glyph name="uni1E9E" format="1">
  <advance width="698"/>
  <unicode hex="1E9E"/>
  <outline>
    <contour>
      <point x="371" y="0" type="line"/>
      <point x="371" y="118" type="line"/>
      <point x="316" y="123" type="line"/>
      <point x="379" y="27"/>
      <point x="423" y="-10"/>
      <point x="503" y="-10" type="curve" smooth="yes"/>
      <point x="591" y="-10"/>
      <point x="674" y="50"/>
      <point x="674" y="146" type="curve" smooth="yes"/>
      <point x="674" y="237"/>
      <point x="605" y="296"/>
      <point x="543" y="345" type="curve"/>
      <point x="659" y="492" type="line"/>
      <point x="580" y="557" type="line"/>
      <point x="381" y="297" type="line"/>
      <point x="528" y="228"/>
      <point x="546" y="178"/>
      <point x="546" y="146" type="curve" smooth="yes"/>
      <point x="546" y="111"/>
      <point x="518" y="84"/>
      <point x="479" y="84" type="curve" smooth="yes"/>
      <point x="436" y="84"/>
      <point x="381" y="117"/>
      <point x="337" y="197" type="curve"/>
      <point x="261" y="192" type="line"/>
      <point x="261" y="0" type="line"/>
    </contour>
    <contour>
      <point x="170" y="536"/>
      <point x="82" y="467"/>
      <point x="82" y="318" type="curve" smooth="yes"/>
      <point x="82" y="96" type="line"/>
      <point x="6" y="96" type="line"/>
      <point x="6" y="0" type="line"/>
      <point x="203" y="0" type="line"/>
      <point x="203" y="320" type="line" smooth="yes"/>
      <point x="203" y="402"/>
      <point x="247" y="434"/>
      <point x="310" y="434" type="curve" smooth="yes"/>
      <point x="381" y="434"/>
      <point x="439" y="395"/>
      <point x="499" y="341" type="curve"/>
      <point x="564" y="414" type="line"/>
      <point x="471" y="496"/>
      <point x="392" y="536"/>
      <point x="306" y="536" type="curve" smooth="yes"/>
    </contour>
  </outline>
</glyph>
<glyph name="quotereversed" format="1">
  <advance width="248"/>
  <unicode hex="201B"/>
  <outline>
    <contour>
      <point x="178" y="342" type="line"/>
      <point x="140" y="383"/>
      <point x="106" y="419"/>
      <point x="105" y="457" type="curve"/>
      <point x="113" y="454"/>
      <point x="126" y="452"/>
      <point x="139" y="452" type="curve" smooth="yes"/>
      <point x="176" y="452"/>
      <point x="204" y="475"/>
      <point x="204" y="506" type="curve" smooth="yes"/>
      <point x="204" y="541"/>
      <point x="170" y="562"/>
      <point x="127" y="562" type="curve" smooth="yes"/>
      <point x="76" y="562"/>
      <point x="44" y="531"/>
      <point x="44" y="476" type="curve" smooth="yes"/>
      <point x="44" y="421"/>
      <point x="91" y="365"/>
      <point x="150" y="313" type="curve"/>
    </contour>
  </outline>
</glyph>
<glyph name="minus" format="1">
  <advance width="447"/>
  <unicode hex="2212"/>
  <outline>
    <contour>
      <point x="33" y="284" type="line"/>
      <point x="33" y="187" type="line"/>
      <point x="413" y="187" type="line"/>
      <point x="413" y="284" type="line"/>
    </contour>
  </outline>
</glyph>
<glyph name="f.alt" format="1">
  <advance width="327"/>
  <outline>
    <contour>
      <point x="32" y="404"/>
      <point x="60" y="378"/>
      <point x="91" y="360" type="curve"/>
      <point x="91" y="50" type="line"/>
      <point x="206" y="50" type="line"/>
      <point x="206" y="348" type="line"/>
      <point x="176" y="358"/>
      <point x="152" y="379"/>
      <point x="152" y="402" type="curve" smooth="yes"/>
      <point x="152" y="429"/>
      <point x="180" y="450"/>
      <point x="230" y="450" type="curve" smooth="yes"/>
      <point x="262" y="450"/>
      <point x="295" y="442"/>
      <point x="327" y="428" type="curve"/>
      <point x="361" y="523" type="line"/>
      <point x="309" y="541"/>
      <point x="261" y="555"/>
      <point x="189" y="555" type="curve" smooth="yes"/>
      <point x="102" y="555"/>
      <point x="32" y="508"/>
      <point x="32" y="448" type="curve" smooth="yes"/>
    </contour>
    <contour>
      <point x="20" y="357" type="line"/>
      <point x="20" y="267" type="line"/>
      <point x="286" y="267" type="line"/>
      <point x="286" y="357" type="line"/>
    </contour>
    <contour>
      <point x="20" y="0" type="line"/>
      <point x="289" y="0" type="line"/>
      <point x="289" y="90" type="line"/>
      <point x="20" y="90" type="line"/>
    </contour>
    <contour>
      <point x="205" y="601" type="move" name="top"/>
    </contour>
    <contour>
      <point x="205" y="0" type="move" name="bottom"/>
    </contour>
  </outline>
</glyph>
<glyph name="seven.alt" format="1">
  <advance width="474"/>
  <outline>
    <contour>
      <point x="29" y="270" type="line"/>
      <point x="123" y="270" type="line"/>
      <point x="123" y="373" type="line"/>
      <point x="349" y="373" type="line"/>
      <point x="349" y="322"/>
      <point x="301" y="296"/>
      <point x="210" y="243" type="curve" smooth="yes"/>
      <point x="89" y="173"/>
      <point x="80" y="87"/>
      <point x="79" y="0" type="curve"/>
      <point x="182" y="0" type="line"/>
      <point x="182" y="65"/>
      <point x="188" y="124"/>
      <point x="295" y="185" type="curve" smooth="yes"/>
      <point x="399" y="244"/>
      <point x="455" y="297"/>
      <point x="455" y="388" type="curve" smooth="yes"/>
      <point x="455" y="469" type="line"/>
      <point x="29" y="469" type="line"/>
    </contour>
  </outline>
</glyph>
<glyph name="two.alt" format="1">
  <advance width="476"/>
  <outline>
    <contour>
      <point x="445" y="0" type="line"/>
      <point x="445" y="163" type="line"/>
      <point x="349" y="163" type="line"/>
      <point x="349" y="96" type="line"/>
      <point x="22" y="96" type="line"/>
      <point x="22" y="0" type="line"/>
    </contour>
    <contour>
      <point x="435" y="429"/>
      <point x="340" y="481"/>
      <point x="244" y="480" type="curve" smooth="yes"/>
      <point x="154" y="479"/>
      <point x="73" y="435"/>
      <point x="19" y="382" type="curve"/>
      <point x="78" y="312" type="line"/>
      <point x="126" y="353"/>
      <point x="184" y="383"/>
      <point x="237" y="383" type="curve" smooth="yes"/>
      <point x="289" y="383"/>
      <point x="316" y="360"/>
      <point x="316" y="332" type="curve" smooth="yes"/>
      <point x="315" y="308"/>
      <point x="298" y="296"/>
      <point x="206" y="265" type="curve" smooth="yes"/>
      <point x="85" y="223"/>
      <point x="22" y="166"/>
      <point x="22" y="84" type="curve"/>
      <point x="139" y="84" type="line"/>
      <point x="139" y="127"/>
      <point x="171" y="147"/>
      <point x="256" y="175" type="curve" smooth="yes"/>
      <point x="364" y="212"/>
      <point x="435" y="251"/>
      <point x="435" y="333" type="curve" smooth="yes"/>
    </contour>
  </outline>
</glyph>
